<?xml version="1.0" encoding="UTF-8" standalone="no"?>
<!DOCTYPE svg PUBLIC "-//W3C//DTD SVG 1.1//EN"
 "http://www.w3.org/Graphics/SVG/1.1/DTD/svg11.dtd">
<!-- Generated by graphviz version 2.44.2~dev.20201112.1525 (20201112.1525)
 -->
<!-- Title: structs Pages: 1 -->
<svg width="721pt" height="1273pt"
 viewBox="0.00 0.00 721.00 1272.94" xmlns="http://www.w3.org/2000/svg" xmlns:xlink="http://www.w3.org/1999/xlink">
<g id="graph0" class="graph" transform="scale(1 1) rotate(0) translate(4 1268.94)">
<title>structs</title>
<polygon fill="white" stroke="transparent" points="-4,4 -4,-1268.94 717,-1268.94 717,4 -4,4"/>
<!-- 007523F0 -->
<g id="node1" class="node">
<title>007523F0</title>
<ellipse fill="#ffffff" stroke="#000000" cx="321" cy="-1246.94" rx="18" ry="18"/>
<text text-anchor="middle" x="321" y="-1243.24" font-family="Times New Roman,serif" font-size="14.00" fill="#000000">D</text>
</g>
<!-- 00756030 -->
<g id="node2" class="node">
<title>00756030</title>
<ellipse fill="#ffffff" stroke="#000000" cx="291" cy="-1168.24" rx="18" ry="18"/>
<text text-anchor="middle" x="291" y="-1164.54" font-family="Times New Roman,serif" font-size="14.00" fill="#000000">D</text>
</g>
<!-- 007523F0&#45;&gt;00756030 -->
<g id="edge1" class="edge">
<title>007523F0:sw&#45;&gt;00756030:</title>
<path fill="none" stroke="black" d="M308,-1232.94C298.45,-1223.39 294.09,-1209.12 292.17,-1196.5"/>
<polygon fill="black" stroke="black" points="295.64,-1195.99 291.07,-1186.43 288.68,-1196.75 295.64,-1195.99"/>
</g>
<!-- 007523C8 -->
<g id="node26" class="node">
<title>007523C8</title>
<ellipse fill="#edffed" stroke="#75a673" cx="391" cy="-1168.24" rx="24.9" ry="24.9"/>
<text text-anchor="middle" x="391" y="-1164.54" font-family="Times New Roman,serif" font-size="14.00" fill="#75a673">fact</text>
</g>
<!-- 007523F0&#45;&gt;007523C8 -->
<g id="edge25" class="edge">
<title>007523F0:se&#45;&gt;007523C8:</title>
<path fill="none" stroke="black" d="M334,-1232.94C345.94,-1221 358.52,-1207.1 368.82,-1195.33"/>
<polygon fill="black" stroke="black" points="371.64,-1197.42 375.55,-1187.58 366.35,-1192.83 371.64,-1197.42"/>
</g>
<!-- 00755EC8 -->
<g id="node3" class="node">
<title>00755EC8</title>
<ellipse fill="#edffed" stroke="#75a673" cx="265" cy="-1075.05" rx="26" ry="26"/>
<text text-anchor="middle" x="265" y="-1071.35" font-family="Times New Roman,serif" font-size="14.00" fill="#75a673">love</text>
</g>
<!-- 00756030&#45;&gt;00755EC8 -->
<g id="edge2" class="edge">
<title>00756030:se&#45;&gt;00755EC8:</title>
<path fill="none" stroke="black" d="M304,-1154.24C319.07,-1139.17 305.86,-1117.09 290.86,-1100.24"/>
<polygon fill="black" stroke="black" points="293.35,-1097.77 283.94,-1092.9 288.26,-1102.58 293.35,-1097.77"/>
</g>
<!-- 00755E50 -->
<g id="node4" class="node">
<title>00755E50</title>
<ellipse fill="#ffffff" stroke="#000000" cx="182" cy="-974.05" rx="32.49" ry="32.49"/>
<text text-anchor="middle" x="182" y="-970.35" font-family="Times New Roman,serif" font-size="14.00" fill="#000000">Block</text>
</g>
<!-- 00755EC8&#45;&gt;00755E50 -->
<g id="edge3" class="edge">
<title>00755EC8:sw&#45;&gt;00755E50:</title>
<path fill="none" stroke="black" d="M246,-1055.05C232.02,-1041.06 218.11,-1024.14 206.85,-1009.46"/>
<polygon fill="black" stroke="black" points="209.36,-1006.99 200.54,-1001.12 203.78,-1011.21 209.36,-1006.99"/>
</g>
<!-- 00756058 -->
<g id="node5" class="node">
<title>00756058</title>
<ellipse fill="#ffffff" stroke="#000000" cx="142" cy="-878.91" rx="18" ry="18"/>
<text text-anchor="middle" x="142" y="-875.21" font-family="Times New Roman,serif" font-size="14.00" fill="#000000">S</text>
</g>
<!-- 00755E50&#45;&gt;00756058 -->
<g id="edge4" class="edge">
<title>00755E50:se&#45;&gt;00756058:</title>
<path fill="none" stroke="black" d="M205,-950.05C224.28,-930.78 191.81,-906.89 166.76,-892.55"/>
<polygon fill="black" stroke="black" points="168.43,-889.48 157.98,-887.73 165.06,-895.61 168.43,-889.48"/>
</g>
<!-- 00755F40 -->
<g id="node6" class="node">
<title>00755F40</title>
<ellipse fill="#e1e1ea" stroke="#52527a" cx="59" cy="-783.76" rx="18" ry="18"/>
<text text-anchor="middle" x="59" y="-780.06" font-family="Times New Roman,serif" font-size="14.00" fill="#52527a">=</text>
</g>
<!-- 00756058&#45;&gt;00755F40 -->
<g id="edge5" class="edge">
<title>00756058:sw&#45;&gt;00755F40:</title>
<path fill="none" stroke="black" d="M129,-864.91C110.09,-846 90.18,-822.84 76.45,-806.3"/>
<polygon fill="black" stroke="black" points="78.93,-803.8 69.87,-798.3 73.52,-808.25 78.93,-803.8"/>
</g>
<!-- 00755FE0 -->
<g id="node9" class="node">
<title>00755FE0</title>
<ellipse fill="#ffffff" stroke="#000000" cx="155" cy="-783.76" rx="18" ry="18"/>
<text text-anchor="middle" x="155" y="-780.06" font-family="Times New Roman,serif" font-size="14.00" fill="#000000">S</text>
</g>
<!-- 00756058&#45;&gt;00755FE0 -->
<g id="edge8" class="edge">
<title>00756058:se&#45;&gt;00755FE0:</title>
<path fill="none" stroke="black" d="M155,-864.91C168.82,-851.09 167.47,-828.31 163.45,-810.57"/>
<polygon fill="black" stroke="black" points="166.8,-809.57 160.86,-800.8 160.04,-811.37 166.8,-809.57"/>
</g>
<!-- 00755F68 -->
<g id="node7" class="node">
<title>00755F68</title>
<ellipse fill="#edffed" stroke="#75a673" cx="18" cy="-682.77" rx="18" ry="18"/>
<text text-anchor="middle" x="18" y="-679.07" font-family="Times New Roman,serif" font-size="14.00" fill="#75a673">n</text>
</g>
<!-- 00755F40&#45;&gt;00755F68 -->
<g id="edge6" class="edge">
<title>00755F40:sw&#45;&gt;00755F68:</title>
<path fill="none" stroke="black" d="M46,-769.76C30.43,-754.19 23.51,-729.87 20.45,-711.06"/>
<polygon fill="black" stroke="black" points="23.89,-710.44 19.08,-701 16.96,-711.38 23.89,-710.44"/>
</g>
<!-- 00756008 -->
<g id="node8" class="node">
<title>00756008</title>
<ellipse fill="#fffaef" stroke="#d2691e" cx="72" cy="-682.77" rx="18" ry="18"/>
<text text-anchor="middle" x="72" y="-679.07" font-family="Times New Roman,serif" font-size="14.00" fill="#ff7f50">0</text>
</g>
<!-- 00755F40&#45;&gt;00756008 -->
<g id="edge7" class="edge">
<title>00755F40:se&#45;&gt;00756008:</title>
<path fill="none" stroke="black" d="M72,-769.76C87.3,-754.46 85.28,-728.92 80.64,-709.64"/>
<polygon fill="black" stroke="black" points="84,-708.66 77.97,-699.94 77.25,-710.51 84,-708.66"/>
</g>
<!-- 00755F18 -->
<g id="node10" class="node">
<title>00755F18</title>
<ellipse fill="#e1e1ea" stroke="#52527a" cx="126" cy="-682.77" rx="18" ry="18"/>
<text text-anchor="middle" x="126" y="-679.07" font-family="Times New Roman,serif" font-size="14.00" fill="#52527a">=</text>
</g>
<!-- 00755FE0&#45;&gt;00755F18 -->
<g id="edge9" class="edge">
<title>00755FE0:sw&#45;&gt;00755F18:</title>
<path fill="none" stroke="black" d="M142,-769.76C126.85,-754.61 123.54,-730.04 123.62,-711.03"/>
<polygon fill="black" stroke="black" points="127.12,-710.99 123.98,-700.87 120.13,-710.74 127.12,-710.99"/>
</g>
<!-- 00755AE0 -->
<g id="node14" class="node">
<title>00755AE0</title>
<ellipse fill="#ffffff" stroke="#000000" cx="195" cy="-682.77" rx="18" ry="18"/>
<text text-anchor="middle" x="195" y="-679.07" font-family="Times New Roman,serif" font-size="14.00" fill="#000000">S</text>
</g>
<!-- 00755FE0&#45;&gt;00755AE0 -->
<g id="edge13" class="edge">
<title>00755FE0:se&#45;&gt;00755AE0:</title>
<path fill="none" stroke="black" d="M168,-769.76C183.52,-754.24 190.14,-729.92 192.95,-711.09"/>
<polygon fill="black" stroke="black" points="196.44,-711.37 194.18,-701.02 189.49,-710.52 196.44,-711.37"/>
</g>
<!-- 00755F90 -->
<g id="node11" class="node">
<title>00755F90</title>
<ellipse fill="#edffed" stroke="#75a673" cx="64" cy="-591.52" rx="18" ry="18"/>
<text text-anchor="middle" x="64" y="-587.82" font-family="Times New Roman,serif" font-size="14.00" fill="#75a673">n</text>
</g>
<!-- 00755F18&#45;&gt;00755F90 -->
<g id="edge10" class="edge">
<title>00755F18:sw&#45;&gt;00755F90:</title>
<path fill="none" stroke="black" d="M113,-668.77C108.64,-664.41 91.24,-636.79 78.41,-616.03"/>
<polygon fill="black" stroke="black" points="81.29,-614.05 73.07,-607.37 75.33,-617.72 81.29,-614.05"/>
</g>
<!-- 00755FB8 -->
<g id="node12" class="node">
<title>00755FB8</title>
<ellipse fill="#e1e1ea" stroke="#52527a" cx="123" cy="-591.52" rx="23" ry="23"/>
<text text-anchor="middle" x="123" y="-587.82" font-family="Times New Roman,serif" font-size="14.00" fill="#52527a">call</text>
</g>
<!-- 00755F18&#45;&gt;00755FB8 -->
<g id="edge11" class="edge">
<title>00755F18:se&#45;&gt;00755FB8:</title>
<path fill="none" stroke="black" d="M139,-668.77C151.55,-656.22 147.03,-636.5 139.64,-620.25"/>
<polygon fill="black" stroke="black" points="142.69,-618.53 135.06,-611.17 136.44,-621.68 142.69,-618.53"/>
</g>
<!-- 00755E78 -->
<g id="node13" class="node">
<title>00755E78</title>
<ellipse fill="#edffed" stroke="#75a673" cx="45" cy="-500.93" rx="30.59" ry="30.59"/>
<text text-anchor="middle" x="45" y="-497.23" font-family="Times New Roman,serif" font-size="14.00" fill="#75a673">accio</text>
</g>
<!-- 00755FB8&#45;&gt;00755E78 -->
<g id="edge12" class="edge">
<title>00755FB8:sw&#45;&gt;00755E78:</title>
<path fill="none" stroke="black" d="M107,-574.52C94.19,-561.71 81.01,-546.61 70.12,-533.5"/>
<polygon fill="black" stroke="black" points="72.71,-531.14 63.66,-525.64 67.3,-535.58 72.71,-531.14"/>
</g>
<!-- 007559A0 -->
<g id="node15" class="node">
<title>007559A0</title>
<ellipse fill="#e1e1ea" stroke="#52527a" cx="182" cy="-591.52" rx="18" ry="18"/>
<text text-anchor="middle" x="182" y="-587.82" font-family="Times New Roman,serif" font-size="14.00" fill="#52527a">=</text>
</g>
<!-- 00755AE0&#45;&gt;007559A0 -->
<g id="edge14" class="edge">
<title>00755AE0:sw&#45;&gt;007559A0:</title>
<path fill="none" stroke="black" d="M182,-668.77C169.21,-655.98 170.07,-635.12 173.66,-618.45"/>
<polygon fill="black" stroke="black" points="177.06,-619.28 176.15,-608.72 170.28,-617.54 177.06,-619.28"/>
</g>
<!-- 00755D10 -->
<g id="node22" class="node">
<title>00755D10</title>
<ellipse fill="#ffffff" stroke="#000000" cx="253" cy="-591.52" rx="18" ry="18"/>
<text text-anchor="middle" x="253" y="-587.82" font-family="Times New Roman,serif" font-size="14.00" fill="#000000">S</text>
</g>
<!-- 00755AE0&#45;&gt;00755D10 -->
<g id="edge21" class="edge">
<title>00755AE0:se&#45;&gt;00755D10:</title>
<path fill="none" stroke="black" d="M208,-668.77C222.67,-654.1 234.38,-633.7 242.17,-617.69"/>
<polygon fill="black" stroke="black" points="245.46,-618.93 246.51,-608.39 239.12,-615.97 245.46,-618.93"/>
</g>
<!-- 00755E00 -->
<g id="node16" class="node">
<title>00755E00</title>
<ellipse fill="#edffed" stroke="#75a673" cx="124" cy="-500.93" rx="30.59" ry="30.59"/>
<text text-anchor="middle" x="124" y="-497.23" font-family="Times New Roman,serif" font-size="14.00" fill="#75a673">result</text>
</g>
<!-- 007559A0&#45;&gt;00755E00 -->
<g id="edge15" class="edge">
<title>007559A0:sw&#45;&gt;00755E00:</title>
<path fill="none" stroke="black" d="M169,-577.52C157.77,-566.29 148.24,-551.71 140.87,-538.35"/>
<polygon fill="black" stroke="black" points="143.89,-536.57 136.13,-529.36 137.7,-539.84 143.89,-536.57"/>
</g>
<!-- 00755E28 -->
<g id="node17" class="node">
<title>00755E28</title>
<ellipse fill="#e1e1ea" stroke="#52527a" cx="195" cy="-500.93" rx="23" ry="23"/>
<text text-anchor="middle" x="195" y="-497.23" font-family="Times New Roman,serif" font-size="14.00" fill="#52527a">call</text>
</g>
<!-- 007559A0&#45;&gt;00755E28 -->
<g id="edge16" class="edge">
<title>007559A0:se&#45;&gt;00755E28:</title>
<path fill="none" stroke="black" d="M195,-577.52C206.5,-566.03 206.87,-547.96 204.19,-532.37"/>
<polygon fill="black" stroke="black" points="207.6,-531.61 202.07,-522.58 200.76,-533.09 207.6,-531.61"/>
</g>
<!-- 00755EA0 -->
<g id="node18" class="node">
<title>00755EA0</title>
<ellipse fill="#edffed" stroke="#75a673" cx="141" cy="-396.03" rx="24.9" ry="24.9"/>
<text text-anchor="middle" x="141" y="-392.33" font-family="Times New Roman,serif" font-size="14.00" fill="#75a673">fact</text>
</g>
<!-- 00755E28&#45;&gt;00755EA0 -->
<g id="edge17" class="edge">
<title>00755E28:sw&#45;&gt;00755EA0:</title>
<path fill="none" stroke="black" d="M179,-483.93C164.4,-469.33 154.99,-448.18 149.18,-430.41"/>
<polygon fill="black" stroke="black" points="152.4,-428.97 146.17,-420.41 145.7,-430.99 152.4,-428.97"/>
</g>
<!-- 007560A8 -->
<g id="node19" class="node">
<title>007560A8</title>
<ellipse fill="#e1e1ea" stroke="#52527a" cx="206" cy="-396.03" rx="23" ry="23"/>
<text text-anchor="middle" x="206" y="-392.33" font-family="Times New Roman,serif" font-size="14.00" fill="#52527a">call</text>
</g>
<!-- 00755E28&#45;&gt;007560A8 -->
<g id="edge18" class="edge">
<title>00755E28:se&#45;&gt;007560A8:</title>
<path fill="none" stroke="black" d="M211,-483.93C225.49,-469.44 223.22,-445.91 217.89,-426.99"/>
<polygon fill="black" stroke="black" points="221.17,-425.77 214.79,-417.32 214.51,-427.91 221.17,-425.77"/>
</g>
<!-- 00755EF0 -->
<g id="node20" class="node">
<title>00755EF0</title>
<ellipse fill="#edffed" stroke="#75a673" cx="165" cy="-276.19" rx="46.59" ry="46.59"/>
<text text-anchor="middle" x="165" y="-272.49" font-family="Times New Roman,serif" font-size="14.00" fill="#75a673">colloshoo</text>
</g>
<!-- 007560A8&#45;&gt;00755EF0 -->
<g id="edge19" class="edge">
<title>007560A8:sw&#45;&gt;00755EF0:</title>
<path fill="none" stroke="black" d="M190,-379.03C177.9,-366.93 171.31,-349.99 167.83,-333.39"/>
<polygon fill="black" stroke="black" points="171.21,-332.39 166.03,-323.15 164.31,-333.6 171.21,-332.39"/>
</g>
<!-- 00756080 -->
<g id="node21" class="node">
<title>00756080</title>
<ellipse fill="#edffed" stroke="#75a673" cx="248" cy="-276.19" rx="18" ry="18"/>
<text text-anchor="middle" x="248" y="-272.49" font-family="Times New Roman,serif" font-size="14.00" fill="#75a673">n</text>
</g>
<!-- 007560A8&#45;&gt;00756080 -->
<g id="edge20" class="edge">
<title>007560A8:se&#45;&gt;00756080:</title>
<path fill="none" stroke="black" d="M222,-379.03C241.49,-359.54 247.03,-327.59 248.3,-304.67"/>
<polygon fill="black" stroke="black" points="251.8,-304.65 248.62,-294.54 244.81,-304.43 251.8,-304.65"/>
</g>
<!-- 00755BD0 -->
<g id="node23" class="node">
<title>00755BD0</title>
<ellipse fill="#e1e1ea" stroke="#52527a" cx="300" cy="-500.93" rx="23" ry="23"/>
<text text-anchor="middle" x="300" y="-497.23" font-family="Times New Roman,serif" font-size="14.00" fill="#52527a">call</text>
</g>
<!-- 00755D10&#45;&gt;00755BD0 -->
<g id="edge22" class="edge">
<title>00755D10:sw&#45;&gt;00755BD0:</title>
<path fill="none" stroke="black" d="M240,-577.52C221.32,-558.85 248.4,-534.51 271.96,-518.56"/>
<polygon fill="black" stroke="black" points="273.91,-521.47 280.39,-513.09 270.1,-515.6 273.91,-521.47"/>
</g>
<!-- 00755CE8 -->
<g id="node24" class="node">
<title>00755CE8</title>
<ellipse fill="#edffed" stroke="#75a673" cx="284" cy="-396.03" rx="37.09" ry="37.09"/>
<text text-anchor="middle" x="284" y="-392.33" font-family="Times New Roman,serif" font-size="14.00" fill="#75a673">flagrate</text>
</g>
<!-- 00755BD0&#45;&gt;00755CE8 -->
<g id="edge23" class="edge">
<title>00755BD0:sw&#45;&gt;00755CE8:</title>
<path fill="none" stroke="black" d="M284,-483.93C273.25,-473.18 270.96,-457.43 272.14,-442.29"/>
<polygon fill="black" stroke="black" points="275.67,-442.33 273.45,-431.97 268.72,-441.45 275.67,-442.33"/>
</g>
<!-- 00755BA8 -->
<g id="node25" class="node">
<title>00755BA8</title>
<ellipse fill="#edffed" stroke="#75a673" cx="370" cy="-396.03" rx="30.59" ry="30.59"/>
<text text-anchor="middle" x="370" y="-392.33" font-family="Times New Roman,serif" font-size="14.00" fill="#75a673">result</text>
</g>
<!-- 00755BD0&#45;&gt;00755BA8 -->
<g id="edge24" class="edge">
<title>00755BD0:se&#45;&gt;00755BA8:</title>
<path fill="none" stroke="black" d="M316,-483.93C330.73,-469.2 343.3,-449.73 352.59,-432.95"/>
<polygon fill="black" stroke="black" points="355.77,-434.42 357.41,-423.95 349.6,-431.12 355.77,-434.42"/>
</g>
<!-- 00EA1508 -->
<g id="node27" class="node">
<title>00EA1508</title>
<ellipse fill="#ffffff" stroke="#000000" cx="373" cy="-1075.05" rx="32.49" ry="32.49"/>
<text text-anchor="middle" x="373" y="-1071.35" font-family="Times New Roman,serif" font-size="14.00" fill="#000000">Block</text>
</g>
<!-- 007523C8&#45;&gt;00EA1508 -->
<g id="edge26" class="edge">
<title>007523C8:sw&#45;&gt;00EA1508:</title>
<path fill="none" stroke="black" d="M373,-1149.24C364.51,-1140.75 362.28,-1128.55 362.86,-1116.53"/>
<polygon fill="black" stroke="black" points="366.34,-1116.89 363.93,-1106.57 359.38,-1116.14 366.34,-1116.89"/>
</g>
<!-- 00752418 -->
<g id="node64" class="node">
<title>00752418</title>
<ellipse fill="#edffed" stroke="#75a673" cx="457" cy="-1075.05" rx="18" ry="18"/>
<text text-anchor="middle" x="457" y="-1071.35" font-family="Times New Roman,serif" font-size="14.00" fill="#75a673">n</text>
</g>
<!-- 007523C8&#45;&gt;00752418 -->
<g id="edge63" class="edge">
<title>007523C8:se&#45;&gt;00752418:</title>
<path fill="none" stroke="black" d="M409,-1149.24C423.42,-1134.83 435.9,-1115.42 444.53,-1100.21"/>
<polygon fill="black" stroke="black" points="447.64,-1101.81 449.38,-1091.36 441.5,-1098.45 447.64,-1101.81"/>
</g>
<!-- 00EA13C8 -->
<g id="node28" class="node">
<title>00EA13C8</title>
<ellipse fill="#ffffff" stroke="#000000" cx="396" cy="-974.05" rx="18" ry="18"/>
<text text-anchor="middle" x="396" y="-970.35" font-family="Times New Roman,serif" font-size="14.00" fill="#000000">S</text>
</g>
<!-- 00EA1508&#45;&gt;00EA13C8 -->
<g id="edge27" class="edge">
<title>00EA1508:se&#45;&gt;00EA13C8:</title>
<path fill="none" stroke="black" d="M396,-1051.05C408.75,-1038.3 407.89,-1017.51 404.31,-1000.89"/>
<polygon fill="black" stroke="black" points="407.7,-1000.02 401.84,-991.2 400.92,-1001.75 407.7,-1000.02"/>
</g>
<!-- 00EA1148 -->
<g id="node29" class="node">
<title>00EA1148</title>
<ellipse fill="#e0f5ff" stroke="#367acc" cx="375" cy="-878.91" rx="18" ry="18"/>
<text text-anchor="middle" x="375" y="-875.21" font-family="Times New Roman,serif" font-size="14.00" fill="#4881cc">if</text>
</g>
<!-- 00EA13C8&#45;&gt;00EA1148 -->
<g id="edge28" class="edge">
<title>00EA13C8:sw&#45;&gt;00EA1148:</title>
<path fill="none" stroke="black" d="M383,-960.05C369.41,-946.46 368.11,-924.35 369.82,-906.8"/>
<polygon fill="black" stroke="black" points="373.33,-906.95 371.19,-896.57 366.39,-906.02 373.33,-906.95"/>
</g>
<!-- 00EA1558 -->
<g id="node54" class="node">
<title>00EA1558</title>
<ellipse fill="#ffffff" stroke="#000000" cx="429" cy="-878.91" rx="18" ry="18"/>
<text text-anchor="middle" x="429" y="-875.21" font-family="Times New Roman,serif" font-size="14.00" fill="#000000">S</text>
</g>
<!-- 00EA13C8&#45;&gt;00EA1558 -->
<g id="edge53" class="edge">
<title>00EA13C8:se&#45;&gt;00EA1558:</title>
<path fill="none" stroke="black" d="M409,-960.05C422.77,-946.28 427.56,-924.56 429.02,-907.21"/>
<polygon fill="black" stroke="black" points="432.52,-907.25 429.55,-897.08 425.53,-906.88 432.52,-907.25"/>
</g>
<!-- 00EA1120 -->
<g id="node30" class="node">
<title>00EA1120</title>
<ellipse fill="#e1e1ea" stroke="#52527a" cx="323" cy="-783.76" rx="18" ry="18"/>
<text text-anchor="middle" x="323" y="-780.06" font-family="Times New Roman,serif" font-size="14.00" fill="#52527a">&gt;</text>
</g>
<!-- 00EA1148&#45;&gt;00EA1120 -->
<g id="edge29" class="edge">
<title>00EA1148:sw&#45;&gt;00EA1120:</title>
<path fill="none" stroke="black" d="M362,-864.91C347.14,-850.05 337.07,-828.4 330.89,-811.34"/>
<polygon fill="black" stroke="black" points="334.06,-809.78 327.54,-801.42 327.42,-812.02 334.06,-809.78"/>
</g>
<!-- 00EA15D0 -->
<g id="node35" class="node">
<title>00EA15D0</title>
<ellipse fill="#e0f5ff" stroke="#367acc" cx="427" cy="-783.76" rx="32.49" ry="32.49"/>
<text text-anchor="middle" x="427" y="-780.06" font-family="Times New Roman,serif" font-size="14.00" fill="#4881cc">if&#45;else</text>
</g>
<!-- 00EA1148&#45;&gt;00EA15D0 -->
<g id="edge34" class="edge">
<title>00EA1148:se&#45;&gt;00EA15D0:</title>
<path fill="none" stroke="black" d="M388,-864.91C399.2,-853.71 407.68,-838.65 413.82,-824.61"/>
<polygon fill="black" stroke="black" points="417.16,-825.69 417.71,-815.11 410.68,-823.04 417.16,-825.69"/>
</g>
<!-- 00EA1080 -->
<g id="node31" class="node">
<title>00EA1080</title>
<ellipse fill="#edffed" stroke="#75a673" cx="282" cy="-682.77" rx="18" ry="18"/>
<text text-anchor="middle" x="282" y="-679.07" font-family="Times New Roman,serif" font-size="14.00" fill="#75a673">n</text>
</g>
<!-- 00EA1120&#45;&gt;00EA1080 -->
<g id="edge30" class="edge">
<title>00EA1120:sw&#45;&gt;00EA1080:</title>
<path fill="none" stroke="black" d="M310,-769.76C294.43,-754.19 287.51,-729.87 284.45,-711.06"/>
<polygon fill="black" stroke="black" points="287.89,-710.44 283.08,-701 280.96,-711.38 287.89,-710.44"/>
</g>
<!-- 00EA10F8 -->
<g id="node32" class="node">
<title>00EA10F8</title>
<ellipse fill="#e1e1ea" stroke="#52527a" cx="336" cy="-682.77" rx="18" ry="18"/>
<text text-anchor="middle" x="336" y="-679.07" font-family="Times New Roman,serif" font-size="14.00" fill="#52527a">&#45;</text>
</g>
<!-- 00EA1120&#45;&gt;00EA10F8 -->
<g id="edge31" class="edge">
<title>00EA1120:se&#45;&gt;00EA10F8:</title>
<path fill="none" stroke="black" d="M336,-769.76C351.3,-754.46 349.28,-728.92 344.64,-709.64"/>
<polygon fill="black" stroke="black" points="348,-708.66 341.97,-699.94 341.25,-710.51 348,-708.66"/>
</g>
<!-- 00EA10A8 -->
<g id="node33" class="node">
<title>00EA10A8</title>
<ellipse fill="#fffaef" stroke="#d2691e" cx="315" cy="-591.52" rx="18" ry="18"/>
<text text-anchor="middle" x="315" y="-587.82" font-family="Times New Roman,serif" font-size="14.00" fill="#ff7f50">3</text>
</g>
<!-- 00EA10F8&#45;&gt;00EA10A8 -->
<g id="edge32" class="edge">
<title>00EA10F8:sw&#45;&gt;00EA10A8:</title>
<path fill="none" stroke="black" d="M323,-668.77C310.42,-656.18 308.8,-635.95 310.12,-619.48"/>
<polygon fill="black" stroke="black" points="313.62,-619.67 311.33,-609.33 306.67,-618.84 313.62,-619.67"/>
</g>
<!-- 00EA10D0 -->
<g id="node34" class="node">
<title>00EA10D0</title>
<ellipse fill="#fffaef" stroke="#d2691e" cx="369" cy="-591.52" rx="18" ry="18"/>
<text text-anchor="middle" x="369" y="-587.82" font-family="Times New Roman,serif" font-size="14.00" fill="#ff7f50">2</text>
</g>
<!-- 00EA10F8&#45;&gt;00EA10D0 -->
<g id="edge33" class="edge">
<title>00EA10F8:se&#45;&gt;00EA10D0:</title>
<path fill="none" stroke="black" d="M349,-668.77C361.78,-655.99 366.7,-636.1 368.46,-619.84"/>
<polygon fill="black" stroke="black" points="371.96,-620.03 369.22,-609.79 364.98,-619.5 371.96,-620.03"/>
</g>
<!-- 00EA12D8 -->
<g id="node36" class="node">
<title>00EA12D8</title>
<ellipse fill="#ffffff" stroke="#000000" cx="404" cy="-682.77" rx="32.49" ry="32.49"/>
<text text-anchor="middle" x="404" y="-679.07" font-family="Times New Roman,serif" font-size="14.00" fill="#000000">Block</text>
</g>
<!-- 00EA15D0&#45;&gt;00EA12D8 -->
<g id="edge35" class="edge">
<title>00EA15D0:sw&#45;&gt;00EA12D8:</title>
<path fill="none" stroke="black" d="M404,-759.76C394.87,-750.63 392.72,-737.38 393.55,-724.49"/>
<polygon fill="black" stroke="black" points="397.05,-724.67 394.77,-714.32 390.1,-723.83 397.05,-724.67"/>
</g>
<!-- 00EA1620 -->
<g id="node48" class="node">
<title>00EA1620</title>
<ellipse fill="#ffffff" stroke="#000000" cx="487" cy="-682.77" rx="32.49" ry="32.49"/>
<text text-anchor="middle" x="487" y="-679.07" font-family="Times New Roman,serif" font-size="14.00" fill="#000000">Block</text>
</g>
<!-- 00EA15D0&#45;&gt;00EA1620 -->
<g id="edge47" class="edge">
<title>00EA15D0:se&#45;&gt;00EA1620:</title>
<path fill="none" stroke="black" d="M450,-759.76C460.09,-749.67 467.85,-736.29 473.6,-723.57"/>
<polygon fill="black" stroke="black" points="476.96,-724.6 477.61,-714.03 470.5,-721.89 476.96,-724.6"/>
</g>
<!-- 00EA13A0 -->
<g id="node37" class="node">
<title>00EA13A0</title>
<ellipse fill="#ffffff" stroke="#000000" cx="427" cy="-591.52" rx="18" ry="18"/>
<text text-anchor="middle" x="427" y="-587.82" font-family="Times New Roman,serif" font-size="14.00" fill="#000000">S</text>
</g>
<!-- 00EA12D8&#45;&gt;00EA13A0 -->
<g id="edge36" class="edge">
<title>00EA12D8:se&#45;&gt;00EA13A0:</title>
<path fill="none" stroke="black" d="M427,-658.77C437.17,-648.59 437.4,-632.54 434.98,-618.79"/>
<polygon fill="black" stroke="black" points="438.35,-617.83 432.73,-608.85 431.52,-619.38 438.35,-617.83"/>
</g>
<!-- 00EA13F0 -->
<g id="node38" class="node">
<title>00EA13F0</title>
<ellipse fill="#e1e1ea" stroke="#52527a" cx="414" cy="-500.93" rx="31.7" ry="31.7"/>
<text text-anchor="middle" x="414" y="-497.23" font-family="Times New Roman,serif" font-size="14.00" fill="#52527a">return</text>
</g>
<!-- 00EA13A0&#45;&gt;00EA13F0 -->
<g id="edge37" class="edge">
<title>00EA13A0:sw&#45;&gt;00EA13F0:</title>
<path fill="none" stroke="black" d="M414,-577.52C404.77,-568.3 402.71,-554.83 403.65,-541.82"/>
<polygon fill="black" stroke="black" points="407.16,-541.93 404.95,-531.57 400.22,-541.04 407.16,-541.93"/>
</g>
<!-- 00EA12B0 -->
<g id="node39" class="node">
<title>00EA12B0</title>
<ellipse fill="#e1e1ea" stroke="#52527a" cx="437" cy="-396.03" rx="18" ry="18"/>
<text text-anchor="middle" x="437" y="-392.33" font-family="Times New Roman,serif" font-size="14.00" fill="#52527a">*</text>
</g>
<!-- 00EA13F0&#45;&gt;00EA12B0 -->
<g id="edge38" class="edge">
<title>00EA13F0:se&#45;&gt;00EA12B0:</title>
<path fill="none" stroke="black" d="M437,-476.93C450.69,-463.24 449.45,-440.72 445.49,-423.07"/>
<polygon fill="black" stroke="black" points="448.86,-422.13 442.94,-413.35 442.09,-423.91 448.86,-422.13"/>
</g>
<!-- 00EA1170 -->
<g id="node40" class="node">
<title>00EA1170</title>
<ellipse fill="#edffed" stroke="#75a673" cx="391" cy="-276.19" rx="18" ry="18"/>
<text text-anchor="middle" x="391" y="-272.49" font-family="Times New Roman,serif" font-size="14.00" fill="#75a673">n</text>
</g>
<!-- 00EA12B0&#45;&gt;00EA1170 -->
<g id="edge39" class="edge">
<title>00EA12B0:sw&#45;&gt;00EA1170:</title>
<path fill="none" stroke="black" d="M424,-382.03C412.98,-371.02 402.59,-331.38 396.51,-304.13"/>
<polygon fill="black" stroke="black" points="399.86,-303.07 394.33,-294.03 393.02,-304.55 399.86,-303.07"/>
</g>
<!-- 00EA1580 -->
<g id="node41" class="node">
<title>00EA1580</title>
<ellipse fill="#e1e1ea" stroke="#52527a" cx="450" cy="-276.19" rx="23" ry="23"/>
<text text-anchor="middle" x="450" y="-272.49" font-family="Times New Roman,serif" font-size="14.00" fill="#52527a">call</text>
</g>
<!-- 00EA12B0&#45;&gt;00EA1580 -->
<g id="edge40" class="edge">
<title>00EA12B0:se&#45;&gt;00EA1580:</title>
<path fill="none" stroke="black" d="M450,-382.03C468.95,-363.09 466.1,-331.26 460.26,-307.63"/>
<polygon fill="black" stroke="black" points="463.57,-306.46 457.54,-297.75 456.82,-308.32 463.57,-306.46"/>
</g>
<!-- 00EA1198 -->
<g id="node42" class="node">
<title>00EA1198</title>
<ellipse fill="#edffed" stroke="#75a673" cx="420" cy="-168.7" rx="24.9" ry="24.9"/>
<text text-anchor="middle" x="420" y="-165" font-family="Times New Roman,serif" font-size="14.00" fill="#75a673">fact</text>
</g>
<!-- 00EA1580&#45;&gt;00EA1198 -->
<g id="edge41" class="edge">
<title>00EA1580:sw&#45;&gt;00EA1198:</title>
<path fill="none" stroke="black" d="M434,-259.19C419.64,-244.84 416.21,-222.2 416.33,-203.29"/>
<polygon fill="black" stroke="black" points="419.83,-203.37 416.71,-193.24 412.83,-203.1 419.83,-203.37"/>
</g>
<!-- 007504B0 -->
<g id="node43" class="node">
<title>007504B0</title>
<ellipse fill="#e1e1ea" stroke="#52527a" cx="481" cy="-168.7" rx="18" ry="18"/>
<text text-anchor="middle" x="481" y="-165" font-family="Times New Roman,serif" font-size="14.00" fill="#52527a">+</text>
</g>
<!-- 00EA1580&#45;&gt;007504B0 -->
<g id="edge42" class="edge">
<title>00EA1580:se&#45;&gt;007504B0:</title>
<path fill="none" stroke="black" d="M466,-259.19C482.05,-243.14 484.79,-216.8 484.11,-196.85"/>
<polygon fill="black" stroke="black" points="487.6,-196.56 483.47,-186.8 480.61,-197 487.6,-196.56"/>
</g>
<!-- 00EA1210 -->
<g id="node44" class="node">
<title>00EA1210</title>
<ellipse fill="#e1e1ea" stroke="#52527a" cx="454" cy="-90" rx="18" ry="18"/>
<text text-anchor="middle" x="454" y="-86.3" font-family="Times New Roman,serif" font-size="14.00" fill="#52527a">&#45;</text>
</g>
<!-- 007504B0&#45;&gt;00EA1210 -->
<g id="edge43" class="edge">
<title>007504B0:sw&#45;&gt;00EA1210:</title>
<path fill="none" stroke="black" d="M468,-154.7C458.56,-145.25 454.84,-130.99 453.58,-118.35"/>
<polygon fill="black" stroke="black" points="457.07,-118.05 453.03,-108.26 450.08,-118.43 457.07,-118.05"/>
</g>
<!-- 00EA1238 -->
<g id="node47" class="node">
<title>00EA1238</title>
<ellipse fill="#fffaef" stroke="#d2691e" cx="508" cy="-90" rx="18" ry="18"/>
<text text-anchor="middle" x="508" y="-86.3" font-family="Times New Roman,serif" font-size="14.00" fill="#ff7f50">2</text>
</g>
<!-- 007504B0&#45;&gt;00EA1238 -->
<g id="edge46" class="edge">
<title>007504B0:se&#45;&gt;00EA1238:</title>
<path fill="none" stroke="black" d="M494,-154.7C503.44,-145.25 507.16,-130.99 508.42,-118.35"/>
<polygon fill="black" stroke="black" points="511.92,-118.43 508.97,-108.26 504.93,-118.05 511.92,-118.43"/>
</g>
<!-- 00EA11C0 -->
<g id="node45" class="node">
<title>00EA11C0</title>
<ellipse fill="#edffed" stroke="#75a673" cx="427" cy="-18" rx="18" ry="18"/>
<text text-anchor="middle" x="427" y="-14.3" font-family="Times New Roman,serif" font-size="14.00" fill="#75a673">n</text>
</g>
<!-- 00EA1210&#45;&gt;00EA11C0 -->
<g id="edge44" class="edge">
<title>00EA1210:sw&#45;&gt;00EA11C0:</title>
<path fill="none" stroke="black" d="M441,-76C433.22,-68.22 429.51,-56.86 427.82,-46.32"/>
<polygon fill="black" stroke="black" points="431.29,-45.79 426.74,-36.23 424.33,-46.54 431.29,-45.79"/>
</g>
<!-- 00EA11E8 -->
<g id="node46" class="node">
<title>00EA11E8</title>
<ellipse fill="#fffaef" stroke="#d2691e" cx="481" cy="-18" rx="18" ry="18"/>
<text text-anchor="middle" x="481" y="-14.3" font-family="Times New Roman,serif" font-size="14.00" fill="#ff7f50">3</text>
</g>
<!-- 00EA1210&#45;&gt;00EA11E8 -->
<g id="edge45" class="edge">
<title>00EA1210:se&#45;&gt;00EA11E8:</title>
<path fill="none" stroke="black" d="M467,-76C474.78,-68.22 478.49,-56.86 480.18,-46.32"/>
<polygon fill="black" stroke="black" points="483.67,-46.54 481.26,-36.23 476.71,-45.79 483.67,-46.54"/>
</g>
<!-- 00EA15F8 -->
<g id="node49" class="node">
<title>00EA15F8</title>
<ellipse fill="#ffffff" stroke="#000000" cx="510" cy="-591.52" rx="18" ry="18"/>
<text text-anchor="middle" x="510" y="-587.82" font-family="Times New Roman,serif" font-size="14.00" fill="#000000">S</text>
</g>
<!-- 00EA1620&#45;&gt;00EA15F8 -->
<g id="edge48" class="edge">
<title>00EA1620:se&#45;&gt;00EA15F8:</title>
<path fill="none" stroke="black" d="M510,-658.77C520.17,-648.59 520.4,-632.54 517.98,-618.79"/>
<polygon fill="black" stroke="black" points="521.35,-617.83 515.73,-608.85 514.52,-619.38 521.35,-617.83"/>
</g>
<!-- 00EA1288 -->
<g id="node50" class="node">
<title>00EA1288</title>
<ellipse fill="#e1e1ea" stroke="#52527a" cx="498" cy="-500.93" rx="31.7" ry="31.7"/>
<text text-anchor="middle" x="498" y="-497.23" font-family="Times New Roman,serif" font-size="14.00" fill="#52527a">return</text>
</g>
<!-- 00EA15F8&#45;&gt;00EA1288 -->
<g id="edge49" class="edge">
<title>00EA15F8:sw&#45;&gt;00EA1288:</title>
<path fill="none" stroke="black" d="M497,-577.52C487.77,-568.3 485.86,-554.83 486.98,-541.82"/>
<polygon fill="black" stroke="black" points="490.49,-541.96 488.44,-531.56 483.56,-540.97 490.49,-541.96"/>
</g>
<!-- 00EA1328 -->
<g id="node51" class="node">
<title>00EA1328</title>
<ellipse fill="#e1e1ea" stroke="#52527a" cx="522" cy="-396.03" rx="18" ry="18"/>
<text text-anchor="middle" x="522" y="-392.33" font-family="Times New Roman,serif" font-size="14.00" fill="#52527a">+</text>
</g>
<!-- 00EA1288&#45;&gt;00EA1328 -->
<g id="edge50" class="edge">
<title>00EA1288:se&#45;&gt;00EA1328:</title>
<path fill="none" stroke="black" d="M521,-476.93C534.69,-463.23 533.75,-440.72 530.06,-423.07"/>
<polygon fill="black" stroke="black" points="533.45,-422.22 527.66,-413.35 526.66,-423.9 533.45,-422.22"/>
</g>
<!-- 00EA15A8 -->
<g id="node52" class="node">
<title>00EA15A8</title>
<ellipse fill="#fffaef" stroke="#d2691e" cx="509" cy="-276.19" rx="18" ry="18"/>
<text text-anchor="middle" x="509" y="-272.49" font-family="Times New Roman,serif" font-size="14.00" fill="#ff7f50">3</text>
</g>
<!-- 00EA1328&#45;&gt;00EA15A8 -->
<g id="edge51" class="edge">
<title>00EA1328:sw&#45;&gt;00EA15A8:</title>
<path fill="none" stroke="black" d="M509,-382.03C488.82,-361.85 493.36,-327.06 499.91,-303.13"/>
<polygon fill="black" stroke="black" points="503.34,-303.89 502.87,-293.3 496.63,-301.86 503.34,-303.89"/>
</g>
<!-- 00EA1468 -->
<g id="node53" class="node">
<title>00EA1468</title>
<ellipse fill="#fffaef" stroke="#d2691e" cx="563" cy="-276.19" rx="18" ry="18"/>
<text text-anchor="middle" x="563" y="-272.49" font-family="Times New Roman,serif" font-size="14.00" fill="#ff7f50">2</text>
</g>
<!-- 00EA1328&#45;&gt;00EA1468 -->
<g id="edge52" class="edge">
<title>00EA1328:se&#45;&gt;00EA1468:</title>
<path fill="none" stroke="black" d="M535,-382.03C555.45,-361.59 561.44,-327.97 562.96,-304.32"/>
<polygon fill="black" stroke="black" points="566.46,-304.38 563.38,-294.25 559.47,-304.09 566.46,-304.38"/>
</g>
<!-- 00EA1530 -->
<g id="node55" class="node">
<title>00EA1530</title>
<ellipse fill="#e0f5ff" stroke="#367acc" cx="599" cy="-783.76" rx="29.5" ry="29.5"/>
<text text-anchor="middle" x="599" y="-780.06" font-family="Times New Roman,serif" font-size="14.00" fill="#4881cc">while</text>
</g>
<!-- 00EA1558&#45;&gt;00EA1530 -->
<g id="edge54" class="edge">
<title>00EA1558:sw&#45;&gt;00EA1530:</title>
<path fill="none" stroke="black" d="M416,-864.91C393.16,-842.07 500.39,-810.05 560.54,-794.29"/>
<polygon fill="black" stroke="black" points="561.66,-797.61 570.47,-791.72 559.91,-790.84 561.66,-797.61"/>
</g>
<!-- 00EA1440 -->
<g id="node56" class="node">
<title>00EA1440</title>
<ellipse fill="#e1e1ea" stroke="#52527a" cx="578" cy="-682.77" rx="18" ry="18"/>
<text text-anchor="middle" x="578" y="-679.07" font-family="Times New Roman,serif" font-size="14.00" fill="#52527a">&#45;</text>
</g>
<!-- 00EA1530&#45;&gt;00EA1440 -->
<g id="edge55" class="edge">
<title>00EA1530:sw&#45;&gt;00EA1440:</title>
<path fill="none" stroke="black" d="M578,-761.76C564.84,-748.6 565.81,-727.08 569.53,-709.98"/>
<polygon fill="black" stroke="black" points="573,-710.57 572.11,-700.02 566.22,-708.82 573,-710.57"/>
</g>
<!-- 00EA14E0 -->
<g id="node59" class="node">
<title>00EA14E0</title>
<ellipse fill="#ffffff" stroke="#000000" cx="648" cy="-682.77" rx="32.49" ry="32.49"/>
<text text-anchor="middle" x="648" y="-679.07" font-family="Times New Roman,serif" font-size="14.00" fill="#000000">Block</text>
</g>
<!-- 00EA1530&#45;&gt;00EA14E0 -->
<g id="edge58" class="edge">
<title>00EA1530:se&#45;&gt;00EA14E0:</title>
<path fill="none" stroke="black" d="M620,-761.76C629.89,-751.87 636.31,-738.25 640.46,-725.15"/>
<polygon fill="black" stroke="black" points="643.89,-725.88 643.22,-715.3 637.15,-723.99 643.89,-725.88"/>
</g>
<!-- 00EA1300 -->
<g id="node57" class="node">
<title>00EA1300</title>
<ellipse fill="#fffaef" stroke="#d2691e" cx="564" cy="-591.52" rx="18" ry="18"/>
<text text-anchor="middle" x="564" y="-587.82" font-family="Times New Roman,serif" font-size="14.00" fill="#ff7f50">3</text>
</g>
<!-- 00EA1440&#45;&gt;00EA1300 -->
<g id="edge56" class="edge">
<title>00EA1440:sw&#45;&gt;00EA1300:</title>
<path fill="none" stroke="black" d="M565,-668.77C552.21,-655.98 552.79,-635.12 556.11,-618.45"/>
<polygon fill="black" stroke="black" points="559.51,-619.26 558.43,-608.72 552.7,-617.63 559.51,-619.26"/>
</g>
<!-- 00EA1418 -->
<g id="node58" class="node">
<title>00EA1418</title>
<ellipse fill="#fffaef" stroke="#d2691e" cx="618" cy="-591.52" rx="18" ry="18"/>
<text text-anchor="middle" x="618" y="-587.82" font-family="Times New Roman,serif" font-size="14.00" fill="#ff7f50">2</text>
</g>
<!-- 00EA1440&#45;&gt;00EA1418 -->
<g id="edge57" class="edge">
<title>00EA1440:se&#45;&gt;00EA1418:</title>
<path fill="none" stroke="black" d="M591,-668.77C604.11,-655.65 610.88,-635.78 614.36,-619.61"/>
<polygon fill="black" stroke="black" points="617.83,-620.09 616.21,-609.63 610.95,-618.82 617.83,-620.09"/>
</g>
<!-- 00EA1378 -->
<g id="node60" class="node">
<title>00EA1378</title>
<ellipse fill="#ffffff" stroke="#000000" cx="672" cy="-591.52" rx="18" ry="18"/>
<text text-anchor="middle" x="672" y="-587.82" font-family="Times New Roman,serif" font-size="14.00" fill="#000000">S</text>
</g>
<!-- 00EA14E0&#45;&gt;00EA1378 -->
<g id="edge59" class="edge">
<title>00EA14E0:se&#45;&gt;00EA1378:</title>
<path fill="none" stroke="black" d="M671,-658.77C681.18,-648.59 681.64,-632.54 679.46,-618.79"/>
<polygon fill="black" stroke="black" points="682.86,-617.93 677.4,-608.85 676.01,-619.36 682.86,-617.93"/>
</g>
<!-- 00EA1350 -->
<g id="node61" class="node">
<title>00EA1350</title>
<ellipse fill="#e1e1ea" stroke="#52527a" cx="659" cy="-500.93" rx="23" ry="23"/>
<text text-anchor="middle" x="659" y="-497.23" font-family="Times New Roman,serif" font-size="14.00" fill="#52527a">call</text>
</g>
<!-- 00EA1378&#45;&gt;00EA1350 -->
<g id="edge60" class="edge">
<title>00EA1378:sw&#45;&gt;00EA1350:</title>
<path fill="none" stroke="black" d="M659,-577.52C647.5,-566.03 647.13,-547.96 649.81,-532.37"/>
<polygon fill="black" stroke="black" points="653.24,-533.09 651.93,-522.58 646.4,-531.61 653.24,-533.09"/>
</g>
<!-- 00EA14B8 -->
<g id="node62" class="node">
<title>00EA14B8</title>
<ellipse fill="#edffed" stroke="#75a673" cx="622" cy="-396.03" rx="37.09" ry="37.09"/>
<text text-anchor="middle" x="622" y="-392.33" font-family="Times New Roman,serif" font-size="14.00" fill="#75a673">flagrate</text>
</g>
<!-- 00EA1350&#45;&gt;00EA14B8 -->
<g id="edge61" class="edge">
<title>00EA1350:sw&#45;&gt;00EA14B8:</title>
<path fill="none" stroke="black" d="M643,-483.93C632.3,-473.23 626.7,-458.07 623.88,-443.41"/>
<polygon fill="black" stroke="black" points="627.32,-442.75 622.33,-433.4 620.4,-443.82 627.32,-442.75"/>
</g>
<!-- 00EA1490 -->
<g id="node63" class="node">
<title>00EA1490</title>
<ellipse fill="#fffaef" stroke="#d2691e" cx="695" cy="-396.03" rx="18" ry="18"/>
<text text-anchor="middle" x="695" y="-392.33" font-family="Times New Roman,serif" font-size="14.00" fill="#ff7f50">6</text>
</g>
<!-- 00EA1350&#45;&gt;00EA1490 -->
<g id="edge62" class="edge">
<title>00EA1350:se&#45;&gt;00EA1490:</title>
<path fill="none" stroke="black" d="M675,-483.93C690.44,-468.48 694.94,-443.67 695.86,-424.5"/>
<polygon fill="black" stroke="black" points="699.37,-424.32 696.05,-414.26 692.37,-424.19 699.37,-424.32"/>
</g>
<!-- 00752440 -->
<g id="node65" class="node">
<title>00752440</title>
<ellipse fill="#edffed" stroke="#75a673" cx="474" cy="-974.05" rx="18" ry="18"/>
<text text-anchor="middle" x="474" y="-970.35" font-family="Times New Roman,serif" font-size="14.00" fill="#75a673">k</text>
</g>
<!-- 00752418&#45;&gt;00752440 -->
<g id="edge64" class="edge">
<title>00752418:se&#45;&gt;00752440:</title>
<path fill="none" stroke="black" d="M470,-1061.05C485.16,-1045.89 484.59,-1020.72 481.15,-1001.52"/>
<polygon fill="black" stroke="black" points="484.54,-1000.61 479.03,-991.56 477.69,-1002.07 484.54,-1000.61"/>
</g>
<!-- 00EA1058 -->
<g id="node66" class="node">
<title>00EA1058</title>
<ellipse fill="#edffed" stroke="#75a673" cx="492" cy="-878.91" rx="26.8" ry="26.8"/>
<text text-anchor="middle" x="492" y="-875.21" font-family="Times New Roman,serif" font-size="14.00" fill="#75a673">level</text>
</g>
<!-- 00752440&#45;&gt;00EA1058 -->
<g id="edge65" class="edge">
<title>00752440:se&#45;&gt;00EA1058:</title>
<path fill="none" stroke="black" d="M487,-960.05C498.48,-948.57 500.55,-930.94 499.39,-915.14"/>
<polygon fill="black" stroke="black" points="502.86,-914.64 498.24,-905.1 495.91,-915.44 502.86,-914.64"/>
</g>
</g>
</svg>
