<?xml version="1.0" encoding="UTF-8" standalone="no"?>
<!DOCTYPE svg PUBLIC "-//W3C//DTD SVG 1.1//EN"
 "http://www.w3.org/Graphics/SVG/1.1/DTD/svg11.dtd">
<!-- Generated by graphviz version 2.44.2~dev.20201112.1525 (20201112.1525)
 -->
<!-- Title: structs Pages: 1 -->
<svg width="589pt" height="1256pt"
 viewBox="0.00 0.00 589.00 1255.64" xmlns="http://www.w3.org/2000/svg" xmlns:xlink="http://www.w3.org/1999/xlink">
<g id="graph0" class="graph" transform="scale(1 1) rotate(0) translate(4 1251.64)">
<title>structs</title>
<polygon fill="white" stroke="transparent" points="-4,4 -4,-1251.64 585,-1251.64 585,4 -4,4"/>
<!-- 00EC23D0 -->
<g id="node1" class="node">
<title>00EC23D0</title>
<ellipse fill="#ffffff" stroke="#000000" cx="244" cy="-1229.64" rx="18" ry="18"/>
<text text-anchor="middle" x="244" y="-1225.94" font-family="Times New Roman,serif" font-size="14.00" fill="#000000">D</text>
</g>
<!-- 00DF1260 -->
<g id="node2" class="node">
<title>00DF1260</title>
<ellipse fill="#ffffff" stroke="#000000" cx="214" cy="-1150.95" rx="18" ry="18"/>
<text text-anchor="middle" x="214" y="-1147.25" font-family="Times New Roman,serif" font-size="14.00" fill="#000000">D</text>
</g>
<!-- 00EC23D0&#45;&gt;00DF1260 -->
<g id="edge1" class="edge">
<title>00EC23D0:sw&#45;&gt;00DF1260:</title>
<path fill="none" stroke="black" d="M231,-1215.64C221.45,-1206.1 217.09,-1191.82 215.17,-1179.2"/>
<polygon fill="black" stroke="black" points="218.64,-1178.69 214.07,-1169.14 211.68,-1179.46 218.64,-1178.69"/>
</g>
<!-- 00EC23A8 -->
<g id="node26" class="node">
<title>00EC23A8</title>
<ellipse fill="#edffed" stroke="#75a673" cx="309" cy="-1150.95" rx="24.9" ry="24.9"/>
<text text-anchor="middle" x="309" y="-1147.25" font-family="Times New Roman,serif" font-size="14.00" fill="#75a673">fact</text>
</g>
<!-- 00EC23D0&#45;&gt;00EC23A8 -->
<g id="edge25" class="edge">
<title>00EC23D0:se&#45;&gt;00EC23A8:</title>
<path fill="none" stroke="black" d="M257,-1215.64C268.13,-1204.52 279.32,-1191.16 288.45,-1179.56"/>
<polygon fill="black" stroke="black" points="291.35,-1181.53 294.7,-1171.48 285.81,-1177.24 291.35,-1181.53"/>
</g>
<!-- 00DF15F8 -->
<g id="node3" class="node">
<title>00DF15F8</title>
<ellipse fill="#edffed" stroke="#75a673" cx="192" cy="-1057.75" rx="26" ry="26"/>
<text text-anchor="middle" x="192" y="-1054.05" font-family="Times New Roman,serif" font-size="14.00" fill="#75a673">love</text>
</g>
<!-- 00DF1260&#45;&gt;00DF15F8 -->
<g id="edge2" class="edge">
<title>00DF1260:se&#45;&gt;00DF15F8:</title>
<path fill="none" stroke="black" d="M227,-1136.95C241.46,-1122.48 230.29,-1101 216.85,-1084.21"/>
<polygon fill="black" stroke="black" points="219.33,-1081.72 210.17,-1076.39 214.01,-1086.27 219.33,-1081.72"/>
</g>
<!-- 00DF12D8 -->
<g id="node4" class="node">
<title>00DF12D8</title>
<ellipse fill="#ffffff" stroke="#000000" cx="127" cy="-956.76" rx="32.49" ry="32.49"/>
<text text-anchor="middle" x="127" y="-953.06" font-family="Times New Roman,serif" font-size="14.00" fill="#000000">Block</text>
</g>
<!-- 00DF15F8&#45;&gt;00DF12D8 -->
<g id="edge3" class="edge">
<title>00DF15F8:sw&#45;&gt;00DF12D8:</title>
<path fill="none" stroke="black" d="M173,-1037.75C161.2,-1025.95 151.38,-1010.51 143.89,-996.34"/>
<polygon fill="black" stroke="black" points="146.94,-994.61 139.31,-987.26 140.7,-997.77 146.94,-994.61"/>
</g>
<!-- 00DF1490 -->
<g id="node5" class="node">
<title>00DF1490</title>
<ellipse fill="#ffffff" stroke="#000000" cx="129" cy="-870.26" rx="18" ry="18"/>
<text text-anchor="middle" x="129" y="-866.56" font-family="Times New Roman,serif" font-size="14.00" fill="#000000">S</text>
</g>
<!-- 00DF12D8&#45;&gt;00DF1490 -->
<g id="edge4" class="edge">
<title>00DF12D8:se&#45;&gt;00DF1490:</title>
<path fill="none" stroke="black" d="M150,-932.76C160.63,-922.13 154.5,-905.9 146.19,-892.79"/>
<polygon fill="black" stroke="black" points="148.86,-890.5 140.26,-884.31 143.12,-894.51 148.86,-890.5"/>
</g>
<!-- 00DF12B0 -->
<g id="node6" class="node">
<title>00DF12B0</title>
<ellipse fill="#d2d2e0" stroke="#8787ab" cx="59" cy="-783.76" rx="18" ry="18"/>
<text text-anchor="middle" x="59" y="-780.06" font-family="Times New Roman,serif" font-size="14.00" fill="#8787ab">=</text>
</g>
<!-- 00DF1490&#45;&gt;00DF12B0 -->
<g id="edge5" class="edge">
<title>00DF1490:sw&#45;&gt;00DF12B0:</title>
<path fill="none" stroke="black" d="M116,-856.26C100.85,-841.11 85.83,-822.06 75.01,-807.43"/>
<polygon fill="black" stroke="black" points="77.57,-805 68.86,-798.97 71.91,-809.12 77.57,-805"/>
</g>
<!-- 00DF1418 -->
<g id="node9" class="node">
<title>00DF1418</title>
<ellipse fill="#ffffff" stroke="#000000" cx="142" cy="-783.76" rx="18" ry="18"/>
<text text-anchor="middle" x="142" y="-780.06" font-family="Times New Roman,serif" font-size="14.00" fill="#000000">S</text>
</g>
<!-- 00DF1490&#45;&gt;00DF1418 -->
<g id="edge8" class="edge">
<title>00DF1490:se&#45;&gt;00DF1418:</title>
<path fill="none" stroke="black" d="M142,-856.26C153.55,-844.71 153.23,-826.13 150.18,-810.81"/>
<polygon fill="black" stroke="black" points="153.52,-809.74 147.75,-800.85 146.72,-811.4 153.52,-809.74"/>
</g>
<!-- 00DF1288 -->
<g id="node7" class="node">
<title>00DF1288</title>
<ellipse fill="#edffed" stroke="#75a673" cx="18" cy="-682.77" rx="18" ry="18"/>
<text text-anchor="middle" x="18" y="-679.07" font-family="Times New Roman,serif" font-size="14.00" fill="#75a673">n</text>
</g>
<!-- 00DF12B0&#45;&gt;00DF1288 -->
<g id="edge6" class="edge">
<title>00DF12B0:sw&#45;&gt;00DF1288:</title>
<path fill="none" stroke="black" d="M46,-769.76C30.43,-754.19 23.51,-729.87 20.45,-711.06"/>
<polygon fill="black" stroke="black" points="23.89,-710.44 19.08,-701 16.96,-711.38 23.89,-710.44"/>
</g>
<!-- 00DF1580 -->
<g id="node8" class="node">
<title>00DF1580</title>
<ellipse fill="#fffaef" stroke="#d2691e" cx="72" cy="-682.77" rx="18" ry="18"/>
<text text-anchor="middle" x="72" y="-679.07" font-family="Times New Roman,serif" font-size="14.00" fill="#ff7f50">0</text>
</g>
<!-- 00DF12B0&#45;&gt;00DF1580 -->
<g id="edge7" class="edge">
<title>00DF12B0:se&#45;&gt;00DF1580:</title>
<path fill="none" stroke="black" d="M72,-769.76C87.3,-754.46 85.28,-728.92 80.64,-709.64"/>
<polygon fill="black" stroke="black" points="84,-708.66 77.97,-699.94 77.25,-710.51 84,-708.66"/>
</g>
<!-- 00DF13F0 -->
<g id="node10" class="node">
<title>00DF13F0</title>
<ellipse fill="#d2d2e0" stroke="#8787ab" cx="126" cy="-682.77" rx="18" ry="18"/>
<text text-anchor="middle" x="126" y="-679.07" font-family="Times New Roman,serif" font-size="14.00" fill="#8787ab">=</text>
</g>
<!-- 00DF1418&#45;&gt;00DF13F0 -->
<g id="edge9" class="edge">
<title>00DF1418:sw&#45;&gt;00DF13F0:</title>
<path fill="none" stroke="black" d="M129,-769.76C113.85,-754.61 114.73,-729.44 118.44,-710.24"/>
<polygon fill="black" stroke="black" points="121.9,-710.81 120.71,-700.28 115.08,-709.26 121.9,-710.81"/>
</g>
<!-- 00EC5BD8 -->
<g id="node14" class="node">
<title>00EC5BD8</title>
<ellipse fill="#ffffff" stroke="#000000" cx="195" cy="-682.77" rx="18" ry="18"/>
<text text-anchor="middle" x="195" y="-679.07" font-family="Times New Roman,serif" font-size="14.00" fill="#000000">S</text>
</g>
<!-- 00DF1418&#45;&gt;00EC5BD8 -->
<g id="edge13" class="edge">
<title>00DF1418:se&#45;&gt;00EC5BD8:</title>
<path fill="none" stroke="black" d="M155,-769.76C171.5,-753.26 181.99,-728.67 188.07,-710"/>
<polygon fill="black" stroke="black" points="191.45,-710.92 191,-700.33 184.75,-708.89 191.45,-710.92"/>
</g>
<!-- 00DF1300 -->
<g id="node11" class="node">
<title>00DF1300</title>
<ellipse fill="#edffed" stroke="#75a673" cx="64" cy="-591.52" rx="18" ry="18"/>
<text text-anchor="middle" x="64" y="-587.82" font-family="Times New Roman,serif" font-size="14.00" fill="#75a673">n</text>
</g>
<!-- 00DF13F0&#45;&gt;00DF1300 -->
<g id="edge10" class="edge">
<title>00DF13F0:sw&#45;&gt;00DF1300:</title>
<path fill="none" stroke="black" d="M113,-668.77C108.64,-664.41 91.24,-636.79 78.41,-616.03"/>
<polygon fill="black" stroke="black" points="81.29,-614.05 73.07,-607.37 75.33,-617.72 81.29,-614.05"/>
</g>
<!-- 00DF13C8 -->
<g id="node12" class="node">
<title>00DF13C8</title>
<ellipse fill="#d2d2e0" stroke="#8787ab" cx="123" cy="-591.52" rx="23" ry="23"/>
<text text-anchor="middle" x="123" y="-587.82" font-family="Times New Roman,serif" font-size="14.00" fill="#8787ab">call</text>
</g>
<!-- 00DF13F0&#45;&gt;00DF13C8 -->
<g id="edge11" class="edge">
<title>00DF13F0:se&#45;&gt;00DF13C8:</title>
<path fill="none" stroke="black" d="M139,-668.77C151.55,-656.22 147.03,-636.5 139.64,-620.25"/>
<polygon fill="black" stroke="black" points="142.69,-618.53 135.06,-611.17 136.44,-621.68 142.69,-618.53"/>
</g>
<!-- 00DF13A0 -->
<g id="node13" class="node">
<title>00DF13A0</title>
<ellipse fill="#edffed" stroke="#75a673" cx="45" cy="-500.93" rx="30.59" ry="30.59"/>
<text text-anchor="middle" x="45" y="-497.23" font-family="Times New Roman,serif" font-size="14.00" fill="#75a673">accio</text>
</g>
<!-- 00DF13C8&#45;&gt;00DF13A0 -->
<g id="edge12" class="edge">
<title>00DF13C8:sw&#45;&gt;00DF13A0:</title>
<path fill="none" stroke="black" d="M107,-574.52C94.19,-561.71 81.01,-546.61 70.12,-533.5"/>
<polygon fill="black" stroke="black" points="72.71,-531.14 63.66,-525.64 67.3,-535.58 72.71,-531.14"/>
</g>
<!-- 00EC5958 -->
<g id="node15" class="node">
<title>00EC5958</title>
<ellipse fill="#d2d2e0" stroke="#8787ab" cx="182" cy="-591.52" rx="18" ry="18"/>
<text text-anchor="middle" x="182" y="-587.82" font-family="Times New Roman,serif" font-size="14.00" fill="#8787ab">=</text>
</g>
<!-- 00EC5BD8&#45;&gt;00EC5958 -->
<g id="edge14" class="edge">
<title>00EC5BD8:sw&#45;&gt;00EC5958:</title>
<path fill="none" stroke="black" d="M182,-668.77C169.21,-655.98 170.07,-635.12 173.66,-618.45"/>
<polygon fill="black" stroke="black" points="177.06,-619.28 176.15,-608.72 170.28,-617.54 177.06,-619.28"/>
</g>
<!-- 00EC5A70 -->
<g id="node22" class="node">
<title>00EC5A70</title>
<ellipse fill="#ffffff" stroke="#000000" cx="253" cy="-591.52" rx="18" ry="18"/>
<text text-anchor="middle" x="253" y="-587.82" font-family="Times New Roman,serif" font-size="14.00" fill="#000000">S</text>
</g>
<!-- 00EC5BD8&#45;&gt;00EC5A70 -->
<g id="edge21" class="edge">
<title>00EC5BD8:se&#45;&gt;00EC5A70:</title>
<path fill="none" stroke="black" d="M208,-668.77C222.67,-654.1 234.38,-633.7 242.17,-617.69"/>
<polygon fill="black" stroke="black" points="245.46,-618.93 246.51,-608.39 239.12,-615.97 245.46,-618.93"/>
</g>
<!-- 00EC59F8 -->
<g id="node16" class="node">
<title>00EC59F8</title>
<ellipse fill="#edffed" stroke="#75a673" cx="124" cy="-500.93" rx="30.59" ry="30.59"/>
<text text-anchor="middle" x="124" y="-497.23" font-family="Times New Roman,serif" font-size="14.00" fill="#75a673">result</text>
</g>
<!-- 00EC5958&#45;&gt;00EC59F8 -->
<g id="edge15" class="edge">
<title>00EC5958:sw&#45;&gt;00EC59F8:</title>
<path fill="none" stroke="black" d="M169,-577.52C157.77,-566.29 148.24,-551.71 140.87,-538.35"/>
<polygon fill="black" stroke="black" points="143.89,-536.57 136.13,-529.36 137.7,-539.84 143.89,-536.57"/>
</g>
<!-- 00EC5C28 -->
<g id="node17" class="node">
<title>00EC5C28</title>
<ellipse fill="#d2d2e0" stroke="#8787ab" cx="195" cy="-500.93" rx="23" ry="23"/>
<text text-anchor="middle" x="195" y="-497.23" font-family="Times New Roman,serif" font-size="14.00" fill="#8787ab">call</text>
</g>
<!-- 00EC5958&#45;&gt;00EC5C28 -->
<g id="edge16" class="edge">
<title>00EC5958:se&#45;&gt;00EC5C28:</title>
<path fill="none" stroke="black" d="M195,-577.52C206.5,-566.03 206.87,-547.96 204.19,-532.37"/>
<polygon fill="black" stroke="black" points="207.6,-531.61 202.07,-522.58 200.76,-533.09 207.6,-531.61"/>
</g>
<!-- 00EC5CF0 -->
<g id="node18" class="node">
<title>00EC5CF0</title>
<ellipse fill="#edffed" stroke="#75a673" cx="141" cy="-396.03" rx="24.9" ry="24.9"/>
<text text-anchor="middle" x="141" y="-392.33" font-family="Times New Roman,serif" font-size="14.00" fill="#75a673">fact</text>
</g>
<!-- 00EC5C28&#45;&gt;00EC5CF0 -->
<g id="edge17" class="edge">
<title>00EC5C28:sw&#45;&gt;00EC5CF0:</title>
<path fill="none" stroke="black" d="M179,-483.93C164.4,-469.33 154.99,-448.18 149.18,-430.41"/>
<polygon fill="black" stroke="black" points="152.4,-428.97 146.17,-420.41 145.7,-430.99 152.4,-428.97"/>
</g>
<!-- 00EC5BB0 -->
<g id="node19" class="node">
<title>00EC5BB0</title>
<ellipse fill="#d2d2e0" stroke="#8787ab" cx="206" cy="-396.03" rx="23" ry="23"/>
<text text-anchor="middle" x="206" y="-392.33" font-family="Times New Roman,serif" font-size="14.00" fill="#8787ab">call</text>
</g>
<!-- 00EC5C28&#45;&gt;00EC5BB0 -->
<g id="edge18" class="edge">
<title>00EC5C28:se&#45;&gt;00EC5BB0:</title>
<path fill="none" stroke="black" d="M211,-483.93C225.49,-469.44 223.22,-445.91 217.89,-426.99"/>
<polygon fill="black" stroke="black" points="221.17,-425.77 214.79,-417.32 214.51,-427.91 221.17,-425.77"/>
</g>
<!-- 00EC5C50 -->
<g id="node20" class="node">
<title>00EC5C50</title>
<ellipse fill="#edffed" stroke="#75a673" cx="165" cy="-276.19" rx="46.59" ry="46.59"/>
<text text-anchor="middle" x="165" y="-272.49" font-family="Times New Roman,serif" font-size="14.00" fill="#75a673">colloshoo</text>
</g>
<!-- 00EC5BB0&#45;&gt;00EC5C50 -->
<g id="edge19" class="edge">
<title>00EC5BB0:sw&#45;&gt;00EC5C50:</title>
<path fill="none" stroke="black" d="M190,-379.03C177.9,-366.93 171.31,-349.99 167.83,-333.39"/>
<polygon fill="black" stroke="black" points="171.21,-332.39 166.03,-323.15 164.31,-333.6 171.21,-332.39"/>
</g>
<!-- 00EC5A98 -->
<g id="node21" class="node">
<title>00EC5A98</title>
<ellipse fill="#edffed" stroke="#75a673" cx="248" cy="-276.19" rx="18" ry="18"/>
<text text-anchor="middle" x="248" y="-272.49" font-family="Times New Roman,serif" font-size="14.00" fill="#75a673">n</text>
</g>
<!-- 00EC5BB0&#45;&gt;00EC5A98 -->
<g id="edge20" class="edge">
<title>00EC5BB0:se&#45;&gt;00EC5A98:</title>
<path fill="none" stroke="black" d="M222,-379.03C241.49,-359.54 247.03,-327.59 248.3,-304.67"/>
<polygon fill="black" stroke="black" points="251.8,-304.65 248.62,-294.54 244.81,-304.43 251.8,-304.65"/>
</g>
<!-- 00EC5CC8 -->
<g id="node23" class="node">
<title>00EC5CC8</title>
<ellipse fill="#d2d2e0" stroke="#8787ab" cx="300" cy="-500.93" rx="23" ry="23"/>
<text text-anchor="middle" x="300" y="-497.23" font-family="Times New Roman,serif" font-size="14.00" fill="#8787ab">call</text>
</g>
<!-- 00EC5A70&#45;&gt;00EC5CC8 -->
<g id="edge22" class="edge">
<title>00EC5A70:sw&#45;&gt;00EC5CC8:</title>
<path fill="none" stroke="black" d="M240,-577.52C221.32,-558.85 248.4,-534.51 271.96,-518.56"/>
<polygon fill="black" stroke="black" points="273.91,-521.47 280.39,-513.09 270.1,-515.6 273.91,-521.47"/>
</g>
<!-- 00EC5CA0 -->
<g id="node24" class="node">
<title>00EC5CA0</title>
<ellipse fill="#edffed" stroke="#75a673" cx="284" cy="-396.03" rx="37.09" ry="37.09"/>
<text text-anchor="middle" x="284" y="-392.33" font-family="Times New Roman,serif" font-size="14.00" fill="#75a673">flagrate</text>
</g>
<!-- 00EC5CC8&#45;&gt;00EC5CA0 -->
<g id="edge23" class="edge">
<title>00EC5CC8:sw&#45;&gt;00EC5CA0:</title>
<path fill="none" stroke="black" d="M284,-483.93C273.25,-473.18 270.96,-457.43 272.14,-442.29"/>
<polygon fill="black" stroke="black" points="275.67,-442.33 273.45,-431.97 268.72,-441.45 275.67,-442.33"/>
</g>
<!-- 00EC5B38 -->
<g id="node25" class="node">
<title>00EC5B38</title>
<ellipse fill="#edffed" stroke="#75a673" cx="370" cy="-396.03" rx="30.59" ry="30.59"/>
<text text-anchor="middle" x="370" y="-392.33" font-family="Times New Roman,serif" font-size="14.00" fill="#75a673">result</text>
</g>
<!-- 00EC5CC8&#45;&gt;00EC5B38 -->
<g id="edge24" class="edge">
<title>00EC5CC8:se&#45;&gt;00EC5B38:</title>
<path fill="none" stroke="black" d="M316,-483.93C330.73,-469.2 343.3,-449.73 352.59,-432.95"/>
<polygon fill="black" stroke="black" points="355.77,-434.42 357.41,-423.95 349.6,-431.12 355.77,-434.42"/>
</g>
<!-- 00DF1558 -->
<g id="node27" class="node">
<title>00DF1558</title>
<ellipse fill="#ffffff" stroke="#000000" cx="291" cy="-1057.75" rx="32.49" ry="32.49"/>
<text text-anchor="middle" x="291" y="-1054.05" font-family="Times New Roman,serif" font-size="14.00" fill="#000000">Block</text>
</g>
<!-- 00EC23A8&#45;&gt;00DF1558 -->
<g id="edge26" class="edge">
<title>00EC23A8:sw&#45;&gt;00DF1558:</title>
<path fill="none" stroke="black" d="M291,-1131.95C282.51,-1123.45 280.28,-1111.25 280.86,-1099.24"/>
<polygon fill="black" stroke="black" points="284.34,-1099.59 281.93,-1089.28 277.38,-1098.85 284.34,-1099.59"/>
</g>
<!-- 00EC23F8 -->
<g id="node54" class="node">
<title>00EC23F8</title>
<ellipse fill="#edffed" stroke="#75a673" cx="359" cy="-1057.75" rx="18" ry="18"/>
<text text-anchor="middle" x="359" y="-1054.05" font-family="Times New Roman,serif" font-size="14.00" fill="#75a673">n</text>
</g>
<!-- 00EC23A8&#45;&gt;00EC23F8 -->
<g id="edge53" class="edge">
<title>00EC23A8:se&#45;&gt;00EC23F8:</title>
<path fill="none" stroke="black" d="M327,-1131.95C339.67,-1119.28 347.7,-1100.75 352.55,-1085.51"/>
<polygon fill="black" stroke="black" points="356,-1086.18 355.41,-1075.6 349.28,-1084.23 356,-1086.18"/>
</g>
<!-- 00DF1378 -->
<g id="node28" class="node">
<title>00DF1378</title>
<ellipse fill="#ffffff" stroke="#000000" cx="320" cy="-956.76" rx="18" ry="18"/>
<text text-anchor="middle" x="320" y="-953.06" font-family="Times New Roman,serif" font-size="14.00" fill="#000000">S</text>
</g>
<!-- 00DF1558&#45;&gt;00DF1378 -->
<g id="edge27" class="edge">
<title>00DF1558:se&#45;&gt;00DF1378:</title>
<path fill="none" stroke="black" d="M314,-1033.75C326.51,-1021.24 327.59,-1001.06 325.77,-984.65"/>
<polygon fill="black" stroke="black" points="329.19,-983.88 324.24,-974.52 322.27,-984.93 329.19,-983.88"/>
</g>
<!-- 00DF10D0 -->
<g id="node29" class="node">
<title>00DF10D0</title>
<ellipse fill="#e0f5ff" stroke="#367acc" cx="318" cy="-870.26" rx="18" ry="18"/>
<text text-anchor="middle" x="318" y="-866.56" font-family="Times New Roman,serif" font-size="14.00" fill="#4881cc">if</text>
</g>
<!-- 00DF1378&#45;&gt;00DF10D0 -->
<g id="edge28" class="edge">
<title>00DF1378:sw&#45;&gt;00DF10D0:</title>
<path fill="none" stroke="black" d="M307,-942.76C294.79,-930.55 298.87,-910.84 305.26,-895.2"/>
<polygon fill="black" stroke="black" points="308.45,-896.64 309.41,-886.09 302.08,-893.74 308.45,-896.64"/>
</g>
<!-- 00DF10A8 -->
<g id="node30" class="node">
<title>00DF10A8</title>
<ellipse fill="#d2d2e0" stroke="#8787ab" cx="305" cy="-783.76" rx="18" ry="18"/>
<text text-anchor="middle" x="305" y="-780.06" font-family="Times New Roman,serif" font-size="14.00" fill="#8787ab">&gt;</text>
</g>
<!-- 00DF10D0&#45;&gt;00DF10A8 -->
<g id="edge29" class="edge">
<title>00DF10D0:sw&#45;&gt;00DF10A8:</title>
<path fill="none" stroke="black" d="M305,-856.26C293.45,-844.71 293.77,-826.13 296.82,-810.81"/>
<polygon fill="black" stroke="black" points="300.28,-811.4 299.25,-800.85 293.48,-809.74 300.28,-811.4"/>
</g>
<!-- 00DF15A8 -->
<g id="node35" class="node">
<title>00DF15A8</title>
<ellipse fill="#e0f5ff" stroke="#367acc" cx="427" cy="-783.76" rx="32.49" ry="32.49"/>
<text text-anchor="middle" x="427" y="-780.06" font-family="Times New Roman,serif" font-size="14.00" fill="#4881cc">if&#45;else</text>
</g>
<!-- 00DF10D0&#45;&gt;00DF15A8 -->
<g id="edge34" class="edge">
<title>00DF10D0:se&#45;&gt;00DF15A8:</title>
<path fill="none" stroke="black" d="M331,-856.26C349.22,-838.04 372.32,-820.69 391.29,-807.65"/>
<polygon fill="black" stroke="black" points="393.36,-810.47 399.68,-801.97 389.44,-804.68 393.36,-810.47"/>
</g>
<!-- 00EC2420 -->
<g id="node31" class="node">
<title>00EC2420</title>
<ellipse fill="#edffed" stroke="#75a673" cx="278" cy="-682.77" rx="18" ry="18"/>
<text text-anchor="middle" x="278" y="-679.07" font-family="Times New Roman,serif" font-size="14.00" fill="#75a673">n</text>
</g>
<!-- 00DF10A8&#45;&gt;00EC2420 -->
<g id="edge30" class="edge">
<title>00DF10A8:sw&#45;&gt;00EC2420:</title>
<path fill="none" stroke="black" d="M292,-769.76C276.91,-754.67 274.2,-730.09 274.81,-711.07"/>
<polygon fill="black" stroke="black" points="278.31,-711.1 275.46,-700.9 271.33,-710.65 278.31,-711.1"/>
</g>
<!-- 00DF1080 -->
<g id="node32" class="node">
<title>00DF1080</title>
<ellipse fill="#d2d2e0" stroke="#8787ab" cx="332" cy="-682.77" rx="18" ry="18"/>
<text text-anchor="middle" x="332" y="-679.07" font-family="Times New Roman,serif" font-size="14.00" fill="#8787ab">&#45;</text>
</g>
<!-- 00DF10A8&#45;&gt;00DF1080 -->
<g id="edge31" class="edge">
<title>00DF10A8:se&#45;&gt;00DF1080:</title>
<path fill="none" stroke="black" d="M318,-769.76C333.09,-754.67 335.8,-730.09 335.19,-711.07"/>
<polygon fill="black" stroke="black" points="338.67,-710.65 334.54,-700.9 331.69,-711.1 338.67,-710.65"/>
</g>
<!-- 00EC2448 -->
<g id="node33" class="node">
<title>00EC2448</title>
<ellipse fill="#fffaef" stroke="#d2691e" cx="315" cy="-591.52" rx="18" ry="18"/>
<text text-anchor="middle" x="315" y="-587.82" font-family="Times New Roman,serif" font-size="14.00" fill="#ff7f50">3</text>
</g>
<!-- 00DF1080&#45;&gt;00EC2448 -->
<g id="edge32" class="edge">
<title>00DF1080:sw&#45;&gt;00EC2448:</title>
<path fill="none" stroke="black" d="M319,-668.77C306.39,-656.16 305.93,-635.75 308.33,-619.21"/>
<polygon fill="black" stroke="black" points="311.84,-619.5 310.22,-609.03 304.95,-618.22 311.84,-619.5"/>
</g>
<!-- 00DF1058 -->
<g id="node34" class="node">
<title>00DF1058</title>
<ellipse fill="#fffaef" stroke="#d2691e" cx="369" cy="-591.52" rx="18" ry="18"/>
<text text-anchor="middle" x="369" y="-587.82" font-family="Times New Roman,serif" font-size="14.00" fill="#ff7f50">2</text>
</g>
<!-- 00DF1080&#45;&gt;00DF1058 -->
<g id="edge33" class="edge">
<title>00DF1080:se&#45;&gt;00DF1058:</title>
<path fill="none" stroke="black" d="M345,-668.77C357.96,-655.81 363.94,-635.93 366.68,-619.72"/>
<polygon fill="black" stroke="black" points="370.17,-620.09 368.06,-609.7 363.23,-619.13 370.17,-620.09"/>
</g>
<!-- 00DF1508 -->
<g id="node36" class="node">
<title>00DF1508</title>
<ellipse fill="#ffffff" stroke="#000000" cx="404" cy="-682.77" rx="32.49" ry="32.49"/>
<text text-anchor="middle" x="404" y="-679.07" font-family="Times New Roman,serif" font-size="14.00" fill="#000000">Block</text>
</g>
<!-- 00DF15A8&#45;&gt;00DF1508 -->
<g id="edge35" class="edge">
<title>00DF15A8:sw&#45;&gt;00DF1508:</title>
<path fill="none" stroke="black" d="M404,-759.76C394.87,-750.63 392.72,-737.38 393.55,-724.49"/>
<polygon fill="black" stroke="black" points="397.05,-724.67 394.77,-714.32 390.1,-723.83 397.05,-724.67"/>
</g>
<!-- 00DF1350 -->
<g id="node48" class="node">
<title>00DF1350</title>
<ellipse fill="#ffffff" stroke="#000000" cx="488" cy="-682.77" rx="32.49" ry="32.49"/>
<text text-anchor="middle" x="488" y="-679.07" font-family="Times New Roman,serif" font-size="14.00" fill="#000000">Block</text>
</g>
<!-- 00DF15A8&#45;&gt;00DF1350 -->
<g id="edge47" class="edge">
<title>00DF15A8:se&#45;&gt;00DF1350:</title>
<path fill="none" stroke="black" d="M450,-759.76C460.14,-749.62 468.06,-736.22 473.98,-723.5"/>
<polygon fill="black" stroke="black" points="477.35,-724.54 478.12,-713.98 470.93,-721.75 477.35,-724.54"/>
</g>
<!-- 00DF14E0 -->
<g id="node37" class="node">
<title>00DF14E0</title>
<ellipse fill="#ffffff" stroke="#000000" cx="427" cy="-591.52" rx="18" ry="18"/>
<text text-anchor="middle" x="427" y="-587.82" font-family="Times New Roman,serif" font-size="14.00" fill="#000000">S</text>
</g>
<!-- 00DF1508&#45;&gt;00DF14E0 -->
<g id="edge36" class="edge">
<title>00DF1508:se&#45;&gt;00DF14E0:</title>
<path fill="none" stroke="black" d="M427,-658.77C437.17,-648.59 437.4,-632.54 434.98,-618.79"/>
<polygon fill="black" stroke="black" points="438.35,-617.83 432.73,-608.85 431.52,-619.38 438.35,-617.83"/>
</g>
<!-- 00DF1440 -->
<g id="node38" class="node">
<title>00DF1440</title>
<ellipse fill="#d2d2e0" stroke="#8787ab" cx="414" cy="-500.93" rx="31.7" ry="31.7"/>
<text text-anchor="middle" x="414" y="-497.23" font-family="Times New Roman,serif" font-size="14.00" fill="#8787ab">return</text>
</g>
<!-- 00DF14E0&#45;&gt;00DF1440 -->
<g id="edge37" class="edge">
<title>00DF14E0:sw&#45;&gt;00DF1440:</title>
<path fill="none" stroke="black" d="M414,-577.52C404.77,-568.3 402.71,-554.83 403.65,-541.82"/>
<polygon fill="black" stroke="black" points="407.16,-541.93 404.95,-531.57 400.22,-541.04 407.16,-541.93"/>
</g>
<!-- 00EC04B0 -->
<g id="node39" class="node">
<title>00EC04B0</title>
<ellipse fill="#d2d2e0" stroke="#8787ab" cx="437" cy="-396.03" rx="18" ry="18"/>
<text text-anchor="middle" x="437" y="-392.33" font-family="Times New Roman,serif" font-size="14.00" fill="#8787ab">*</text>
</g>
<!-- 00DF1440&#45;&gt;00EC04B0 -->
<g id="edge38" class="edge">
<title>00DF1440:se&#45;&gt;00EC04B0:</title>
<path fill="none" stroke="black" d="M437,-476.93C450.69,-463.24 449.45,-440.72 445.49,-423.07"/>
<polygon fill="black" stroke="black" points="448.86,-422.13 442.94,-413.35 442.09,-423.91 448.86,-422.13"/>
</g>
<!-- 00DF10F8 -->
<g id="node40" class="node">
<title>00DF10F8</title>
<ellipse fill="#edffed" stroke="#75a673" cx="391" cy="-276.19" rx="18" ry="18"/>
<text text-anchor="middle" x="391" y="-272.49" font-family="Times New Roman,serif" font-size="14.00" fill="#75a673">n</text>
</g>
<!-- 00EC04B0&#45;&gt;00DF10F8 -->
<g id="edge39" class="edge">
<title>00EC04B0:sw&#45;&gt;00DF10F8:</title>
<path fill="none" stroke="black" d="M424,-382.03C412.98,-371.02 402.59,-331.38 396.51,-304.13"/>
<polygon fill="black" stroke="black" points="399.86,-303.07 394.33,-294.03 393.02,-304.55 399.86,-303.07"/>
</g>
<!-- 00DF1210 -->
<g id="node41" class="node">
<title>00DF1210</title>
<ellipse fill="#d2d2e0" stroke="#8787ab" cx="450" cy="-276.19" rx="23" ry="23"/>
<text text-anchor="middle" x="450" y="-272.49" font-family="Times New Roman,serif" font-size="14.00" fill="#8787ab">call</text>
</g>
<!-- 00EC04B0&#45;&gt;00DF1210 -->
<g id="edge40" class="edge">
<title>00EC04B0:se&#45;&gt;00DF1210:</title>
<path fill="none" stroke="black" d="M450,-382.03C468.95,-363.09 466.1,-331.26 460.26,-307.63"/>
<polygon fill="black" stroke="black" points="463.57,-306.46 457.54,-297.75 456.82,-308.32 463.57,-306.46"/>
</g>
<!-- 00DF1120 -->
<g id="node42" class="node">
<title>00DF1120</title>
<ellipse fill="#edffed" stroke="#75a673" cx="420" cy="-168.7" rx="24.9" ry="24.9"/>
<text text-anchor="middle" x="420" y="-165" font-family="Times New Roman,serif" font-size="14.00" fill="#75a673">fact</text>
</g>
<!-- 00DF1210&#45;&gt;00DF1120 -->
<g id="edge41" class="edge">
<title>00DF1210:sw&#45;&gt;00DF1120:</title>
<path fill="none" stroke="black" d="M434,-259.19C419.64,-244.84 416.21,-222.2 416.33,-203.29"/>
<polygon fill="black" stroke="black" points="419.83,-203.37 416.71,-193.24 412.83,-203.1 419.83,-203.37"/>
</g>
<!-- 00DF11E8 -->
<g id="node43" class="node">
<title>00DF11E8</title>
<ellipse fill="#d2d2e0" stroke="#8787ab" cx="481" cy="-168.7" rx="18" ry="18"/>
<text text-anchor="middle" x="481" y="-165" font-family="Times New Roman,serif" font-size="14.00" fill="#8787ab">+</text>
</g>
<!-- 00DF1210&#45;&gt;00DF11E8 -->
<g id="edge42" class="edge">
<title>00DF1210:se&#45;&gt;00DF11E8:</title>
<path fill="none" stroke="black" d="M466,-259.19C482.05,-243.14 484.79,-216.8 484.11,-196.85"/>
<polygon fill="black" stroke="black" points="487.6,-196.56 483.47,-186.8 480.61,-197 487.6,-196.56"/>
</g>
<!-- 00DF1198 -->
<g id="node44" class="node">
<title>00DF1198</title>
<ellipse fill="#d2d2e0" stroke="#8787ab" cx="454" cy="-90" rx="18" ry="18"/>
<text text-anchor="middle" x="454" y="-86.3" font-family="Times New Roman,serif" font-size="14.00" fill="#8787ab">&#45;</text>
</g>
<!-- 00DF11E8&#45;&gt;00DF1198 -->
<g id="edge43" class="edge">
<title>00DF11E8:sw&#45;&gt;00DF1198:</title>
<path fill="none" stroke="black" d="M468,-154.7C458.56,-145.25 454.84,-130.99 453.58,-118.35"/>
<polygon fill="black" stroke="black" points="457.07,-118.05 453.03,-108.26 450.08,-118.43 457.07,-118.05"/>
</g>
<!-- 00DF11C0 -->
<g id="node47" class="node">
<title>00DF11C0</title>
<ellipse fill="#fffaef" stroke="#d2691e" cx="508" cy="-90" rx="18" ry="18"/>
<text text-anchor="middle" x="508" y="-86.3" font-family="Times New Roman,serif" font-size="14.00" fill="#ff7f50">2</text>
</g>
<!-- 00DF11E8&#45;&gt;00DF11C0 -->
<g id="edge46" class="edge">
<title>00DF11E8:se&#45;&gt;00DF11C0:</title>
<path fill="none" stroke="black" d="M494,-154.7C503.44,-145.25 507.16,-130.99 508.42,-118.35"/>
<polygon fill="black" stroke="black" points="511.92,-118.43 508.97,-108.26 504.93,-118.05 511.92,-118.43"/>
</g>
<!-- 00DF1148 -->
<g id="node45" class="node">
<title>00DF1148</title>
<ellipse fill="#edffed" stroke="#75a673" cx="427" cy="-18" rx="18" ry="18"/>
<text text-anchor="middle" x="427" y="-14.3" font-family="Times New Roman,serif" font-size="14.00" fill="#75a673">n</text>
</g>
<!-- 00DF1198&#45;&gt;00DF1148 -->
<g id="edge44" class="edge">
<title>00DF1198:sw&#45;&gt;00DF1148:</title>
<path fill="none" stroke="black" d="M441,-76C433.22,-68.22 429.51,-56.86 427.82,-46.32"/>
<polygon fill="black" stroke="black" points="431.29,-45.79 426.74,-36.23 424.33,-46.54 431.29,-45.79"/>
</g>
<!-- 00DF1170 -->
<g id="node46" class="node">
<title>00DF1170</title>
<ellipse fill="#fffaef" stroke="#d2691e" cx="481" cy="-18" rx="18" ry="18"/>
<text text-anchor="middle" x="481" y="-14.3" font-family="Times New Roman,serif" font-size="14.00" fill="#ff7f50">3</text>
</g>
<!-- 00DF1198&#45;&gt;00DF1170 -->
<g id="edge45" class="edge">
<title>00DF1198:se&#45;&gt;00DF1170:</title>
<path fill="none" stroke="black" d="M467,-76C474.78,-68.22 478.49,-56.86 480.18,-46.32"/>
<polygon fill="black" stroke="black" points="483.67,-46.54 481.26,-36.23 476.71,-45.79 483.67,-46.54"/>
</g>
<!-- 00DF14B8 -->
<g id="node49" class="node">
<title>00DF14B8</title>
<ellipse fill="#ffffff" stroke="#000000" cx="511" cy="-591.52" rx="18" ry="18"/>
<text text-anchor="middle" x="511" y="-587.82" font-family="Times New Roman,serif" font-size="14.00" fill="#000000">S</text>
</g>
<!-- 00DF1350&#45;&gt;00DF14B8 -->
<g id="edge48" class="edge">
<title>00DF1350:se&#45;&gt;00DF14B8:</title>
<path fill="none" stroke="black" d="M511,-658.77C521.17,-648.59 521.4,-632.54 518.98,-618.79"/>
<polygon fill="black" stroke="black" points="522.35,-617.83 516.73,-608.85 515.52,-619.38 522.35,-617.83"/>
</g>
<!-- 00DF1328 -->
<g id="node50" class="node">
<title>00DF1328</title>
<ellipse fill="#d2d2e0" stroke="#8787ab" cx="499" cy="-500.93" rx="31.7" ry="31.7"/>
<text text-anchor="middle" x="499" y="-497.23" font-family="Times New Roman,serif" font-size="14.00" fill="#8787ab">return</text>
</g>
<!-- 00DF14B8&#45;&gt;00DF1328 -->
<g id="edge49" class="edge">
<title>00DF14B8:sw&#45;&gt;00DF1328:</title>
<path fill="none" stroke="black" d="M498,-577.52C488.77,-568.3 486.86,-554.83 487.98,-541.82"/>
<polygon fill="black" stroke="black" points="491.49,-541.96 489.44,-531.56 484.56,-540.97 491.49,-541.96"/>
</g>
<!-- 00DF1468 -->
<g id="node51" class="node">
<title>00DF1468</title>
<ellipse fill="#d2d2e0" stroke="#8787ab" cx="522" cy="-396.03" rx="18" ry="18"/>
<text text-anchor="middle" x="522" y="-392.33" font-family="Times New Roman,serif" font-size="14.00" fill="#8787ab">+</text>
</g>
<!-- 00DF1328&#45;&gt;00DF1468 -->
<g id="edge50" class="edge">
<title>00DF1328:se&#45;&gt;00DF1468:</title>
<path fill="none" stroke="black" d="M522,-476.93C535.69,-463.24 534.45,-440.72 530.49,-423.07"/>
<polygon fill="black" stroke="black" points="533.86,-422.13 527.94,-413.35 527.09,-423.91 533.86,-422.13"/>
</g>
<!-- 00DF15D0 -->
<g id="node52" class="node">
<title>00DF15D0</title>
<ellipse fill="#fffaef" stroke="#d2691e" cx="509" cy="-276.19" rx="18" ry="18"/>
<text text-anchor="middle" x="509" y="-272.49" font-family="Times New Roman,serif" font-size="14.00" fill="#ff7f50">3</text>
</g>
<!-- 00DF1468&#45;&gt;00DF15D0 -->
<g id="edge51" class="edge">
<title>00DF1468:sw&#45;&gt;00DF15D0:</title>
<path fill="none" stroke="black" d="M509,-382.03C488.82,-361.85 493.36,-327.06 499.91,-303.13"/>
<polygon fill="black" stroke="black" points="503.34,-303.89 502.87,-293.3 496.63,-301.86 503.34,-303.89"/>
</g>
<!-- 00DF1530 -->
<g id="node53" class="node">
<title>00DF1530</title>
<ellipse fill="#fffaef" stroke="#d2691e" cx="563" cy="-276.19" rx="18" ry="18"/>
<text text-anchor="middle" x="563" y="-272.49" font-family="Times New Roman,serif" font-size="14.00" fill="#ff7f50">2</text>
</g>
<!-- 00DF1468&#45;&gt;00DF1530 -->
<g id="edge52" class="edge">
<title>00DF1468:se&#45;&gt;00DF1530:</title>
<path fill="none" stroke="black" d="M535,-382.03C555.45,-361.59 561.44,-327.97 562.96,-304.32"/>
<polygon fill="black" stroke="black" points="566.46,-304.38 563.38,-294.25 559.47,-304.09 566.46,-304.38"/>
</g>
</g>
</svg>
